<mxfile host="www.draw.io" modified="2020-04-22T03:55:55.773Z" agent="5.0 (Windows NT 10.0; WOW64) AppleWebKit/537.36 (KHTML, like Gecko) Chrome/80.0.3987.163 Safari/537.36" etag="Bohk6KWUMK5y2lpSIBFH" version="12.9.12" type="github">
  <diagram id="9zOE_HqemerwaXQ6P7oV" name="第 1 页">
    <mxGraphModel dx="1038" dy="1757" grid="1" gridSize="10" guides="1" tooltips="1" connect="1" arrows="1" fold="1" page="1" pageScale="1" pageWidth="827" pageHeight="1169" math="0" shadow="0">
      <root>
        <mxCell id="0" />
        <mxCell id="1" parent="0" />
        <mxCell id="JjPNr-y6szL-fxCdMGku-3" value="" style="edgeStyle=orthogonalEdgeStyle;rounded=0;orthogonalLoop=1;jettySize=auto;html=1;" edge="1" parent="1" source="JjPNr-y6szL-fxCdMGku-1">
          <mxGeometry relative="1" as="geometry">
            <mxPoint x="360" y="250" as="targetPoint" />
          </mxGeometry>
        </mxCell>
        <mxCell id="JjPNr-y6szL-fxCdMGku-1" value="读取数据" style="rounded=1;whiteSpace=wrap;html=1;fillColor=#dae8fc;strokeColor=#6c8ebf;" vertex="1" parent="1">
          <mxGeometry x="300" y="110" width="120" height="60" as="geometry" />
        </mxCell>
        <mxCell id="JjPNr-y6szL-fxCdMGku-7" value="" style="edgeStyle=orthogonalEdgeStyle;rounded=0;orthogonalLoop=1;jettySize=auto;html=1;entryX=0.5;entryY=0;entryDx=0;entryDy=0;" edge="1" parent="1" source="JjPNr-y6szL-fxCdMGku-5" target="JjPNr-y6szL-fxCdMGku-1">
          <mxGeometry relative="1" as="geometry">
            <mxPoint x="360" y="100" as="targetPoint" />
          </mxGeometry>
        </mxCell>
        <mxCell id="JjPNr-y6szL-fxCdMGku-5" value="update（new, old）" style="ellipse;whiteSpace=wrap;html=1;fillColor=#dae8fc;strokeColor=#6c8ebf;" vertex="1" parent="1">
          <mxGeometry x="300" y="-60" width="120" height="80" as="geometry" />
        </mxCell>
        <mxCell id="JjPNr-y6szL-fxCdMGku-10" value="" style="edgeStyle=orthogonalEdgeStyle;rounded=0;orthogonalLoop=1;jettySize=auto;html=1;" edge="1" parent="1" source="JjPNr-y6szL-fxCdMGku-8" target="JjPNr-y6szL-fxCdMGku-9">
          <mxGeometry relative="1" as="geometry" />
        </mxCell>
        <mxCell id="JjPNr-y6szL-fxCdMGku-13" value="" style="edgeStyle=orthogonalEdgeStyle;rounded=0;orthogonalLoop=1;jettySize=auto;html=1;entryX=1;entryY=0.5;entryDx=0;entryDy=0;" edge="1" parent="1" source="JjPNr-y6szL-fxCdMGku-8" target="JjPNr-y6szL-fxCdMGku-5">
          <mxGeometry relative="1" as="geometry">
            <mxPoint x="510" y="-30" as="targetPoint" />
            <Array as="points">
              <mxPoint x="470" y="300" />
              <mxPoint x="470" y="-20" />
            </Array>
          </mxGeometry>
        </mxCell>
        <mxCell id="JjPNr-y6szL-fxCdMGku-14" value="不一致(修改old为读出来的值，继续重试)" style="edgeLabel;html=1;align=center;verticalAlign=middle;resizable=0;points=[];rotation=90;" vertex="1" connectable="0" parent="JjPNr-y6szL-fxCdMGku-13">
          <mxGeometry x="-0.1086" y="2" relative="1" as="geometry">
            <mxPoint x="22" y="-23" as="offset" />
          </mxGeometry>
        </mxCell>
        <mxCell id="JjPNr-y6szL-fxCdMGku-8" value="对比old与读取的值是否一致" style="rhombus;whiteSpace=wrap;html=1;fillColor=#dae8fc;strokeColor=#6c8ebf;" vertex="1" parent="1">
          <mxGeometry x="300" y="250" width="120" height="100" as="geometry" />
        </mxCell>
        <mxCell id="JjPNr-y6szL-fxCdMGku-9" value="修改数据" style="rounded=1;whiteSpace=wrap;html=1;fillColor=#fff2cc;strokeColor=#d6b656;" vertex="1" parent="1">
          <mxGeometry x="300" y="430" width="120" height="60" as="geometry" />
        </mxCell>
        <mxCell id="JjPNr-y6szL-fxCdMGku-11" value="一致" style="text;html=1;align=center;verticalAlign=middle;resizable=0;points=[];autosize=1;" vertex="1" parent="1">
          <mxGeometry x="360" y="370" width="40" height="20" as="geometry" />
        </mxCell>
      </root>
    </mxGraphModel>
  </diagram>
</mxfile>
